<?xml version="1.0" encoding="UTF-8" standalone="no"?>
<!DOCTYPE svg PUBLIC "-//W3C//DTD SVG 1.1//EN" "http://www.w3.org/Graphics/SVG/1.1/DTD/svg11.dtd">
<svg xmlns="http://www.w3.org/2000/svg" version="1.1" viewBox="0.00 0.00 985.00 415.00">
<g stroke-width="2.00" fill="none" stroke-linecap="butt">
<path stroke="#800020" vector-effect="non-scaling-stroke" d="
  M 665.42 146.18
  L 832.29 146.18
  A 0.68 0.68 0.0 0 0 832.94 145.71
  L 860.73 57.98
  A 0.37 0.37 0.0 0 0 860.38 57.50
  Q 808.99 57.46 722.75 57.50
  C 709.38 57.51 698.19 65.36 690.92 76.18
  Q 687.60 81.14 682.89 94.57
  Q 669.24 133.54 664.91 145.45
  A 0.54 0.54 0.0 0 0 665.42 146.18"
/>
<path stroke="#FFFFFF" vector-effect="non-scaling-stroke" d="
  M 631.90 166.20
  L 617.43 154.09
  A 0.46 0.45 -51.1 0 0 616.78 154.16
  C 609.63 163.20 596.52 166.66 586.27 161.44
  C 576.89 156.66 573.38 145.91 574.40 135.99
  Q 575.97 120.76 586.86 111.23
  C 596.23 103.02 613.11 100.59 621.69 111.27
  A 0.61 0.60 53.0 0 0 622.52 111.39
  L 639.50 99.23
  A 0.57 0.55 -35.5 0 0 639.64 98.45
  C 631.97 87.54 618.25 84.17 605.45 85.27
  C 573.72 87.98 551.87 112.28 552.68 144.17
  C 553.16 163.19 564.90 177.25 583.55 181.53
  C 601.14 185.57 619.83 181.01 631.98 167.26
  A 0.75 0.74 40.7 0 0 631.90 166.20"
/>
<path stroke="#FFFFFF" vector-effect="non-scaling-stroke" d="
  M 197.29 109.70
  L 187.44 180.28
  A 0.30 0.30 0.0 0 0 187.74 180.62
  L 207.34 180.62
  A 0.79 0.78 3.7 0 0 208.12 179.94
  L 220.92 88.24
  A 0.73 0.73 0.0 0 0 220.20 87.41
  L 190.49 87.41
  A 0.68 0.67 -76.2 0 0 189.89 87.78
  L 160.29 147.61
  A 0.25 0.25 0.0 0 1 159.82 147.55
  L 147.17 87.83
  A 0.54 0.53 -5.9 0 0 146.64 87.41
  L 116.68 87.41
  A 0.79 0.78 3.7 0 0 115.90 88.09
  L 103.05 180.12
  A 0.44 0.44 0.0 0 0 103.49 180.62
  L 123.33 180.62
  A 0.34 0.34 0.0 0 0 123.67 180.33
  L 133.47 110.10
  A 0.18 0.18 0.0 0 1 133.82 110.09
  L 147.13 180.21
  A 0.50 0.49 -4.8 0 0 147.62 180.62
  L 162.62 180.62
  A 0.48 0.48 0.0 0 0 163.05 180.35
  L 197.10 109.64
  A 0.10 0.10 0.0 0 1 197.29 109.70"
/>
<path stroke="#FFFFFF" vector-effect="non-scaling-stroke" d="
  M 454.00 161.92
  A 0.42 0.42 0.0 0 0 453.59 161.44
  L 416.68 161.44
  A 0.42 0.42 0.0 0 1 416.27 160.96
  L 426.46 87.89
  A 0.42 0.42 0.0 0 0 426.05 87.41
  L 406.27 87.41
  A 0.42 0.42 0.0 0 0 405.85 87.77
  L 392.96 180.14
  A 0.42 0.42 0.0 0 0 393.37 180.62
  L 451.02 180.62
  A 0.42 0.42 0.0 0 0 451.44 180.26
  L 454.00 161.92"
/>
<path stroke="#FFFFFF" vector-effect="non-scaling-stroke" d="
  M 491.49 87.40
  L 472.16 87.40
  A 0.66 0.66 0.0 0 0 471.51 87.97
  Q 467.81 113.64 463.45 145.64
  C 461.13 162.72 468.24 177.10 485.29 181.52
  Q 492.49 183.38 501.68 182.79
  C 518.28 181.72 531.86 172.67 538.64 157.26
  Q 541.46 150.83 543.24 135.82
  Q 543.25 135.69 549.92 87.95
  A 0.48 0.48 0.0 0 0 549.44 87.41
  L 529.77 87.41
  A 0.45 0.44 -86.3 0 0 529.33 87.80
  Q 525.00 118.42 522.02 140.13
  Q 521.06 147.17 519.73 150.17
  C 516.33 157.81 508.87 163.89 500.94 163.83
  Q 486.10 163.72 484.02 149.10
  A 11.11 11.11 0.0 0 1 484.02 146.06
  L 492.11 88.11
  A 0.63 0.63 0.0 0 0 491.49 87.40"
/>
<path stroke="#FFFFFF" vector-effect="non-scaling-stroke" d="
  M 292.27 124.08
  A 0.37 0.37 0.0 0 0 291.90 123.66
  L 252.57 123.66
  A 0.37 0.37 0.0 0 1 252.20 123.24
  L 254.48 106.92
  A 0.37 0.37 0.0 0 1 254.84 106.60
  L 296.82 106.60
  A 0.37 0.37 0.0 0 0 297.18 106.28
  L 299.76 87.83
  A 0.37 0.37 0.0 0 0 299.39 87.41
  L 236.89 87.41
  A 0.37 0.37 0.0 0 0 236.53 87.73
  L 223.62 180.20
  A 0.37 0.37 0.0 0 0 223.99 180.62
  L 288.83 180.62
  A 0.37 0.37 0.0 0 0 289.19 180.30
  L 291.77 161.86
  A 0.37 0.37 0.0 0 0 291.40 161.44
  L 247.28 161.44
  A 0.37 0.37 0.0 0 1 246.91 161.02
  L 249.41 143.11
  A 0.37 0.37 0.0 0 1 249.77 142.79
  L 289.35 142.79
  A 0.37 0.37 0.0 0 0 289.71 142.47
  L 292.27 124.08"
/>
<path stroke="#FFFFFF" vector-effect="non-scaling-stroke" d="
  M 330.58 125.19
  L 335.77 88.06
  A 0.57 0.57 0.0 0 0 335.20 87.41
  L 315.61 87.41
  A 0.47 0.46 -85.7 0 0 315.15 87.81
  L 302.28 180.05
  A 0.51 0.51 0.0 0 0 302.78 180.63
  L 322.40 180.63
  A 0.51 0.50 -86.1 0 0 322.90 180.19
  L 328.93 136.98
  A 0.13 0.13 0.0 0 1 329.17 136.92
  L 360.20 180.24
  A 0.90 0.89 72.0 0 0 360.93 180.62
  L 388.59 180.62
  A 0.35 0.35 0.0 0 0 388.87 180.05
  L 351.56 131.06
  A 0.43 0.42 -39.2 0 1 351.62 130.49
  L 398.11 88.05
  A 0.37 0.36 -65.9 0 0 397.87 87.41
  L 372.27 87.41
  A 1.26 1.24 23.0 0 0 371.41 87.75
  L 331.01 125.41
  A 0.26 0.26 0.0 0 1 330.58 125.19"
/>
<path stroke="#800020" vector-effect="non-scaling-stroke" d="
  M 829.69 155.96
  A 0.32 0.32 0.0 0 0 829.38 155.54
  L 661.63 155.54
  A 0.32 0.32 0.0 0 0 661.32 155.75
  L 630.13 244.03
  A 0.32 0.32 0.0 0 0 630.43 244.46
  L 801.41 244.46
  A 0.32 0.32 0.0 0 0 801.71 244.24
  L 829.69 155.96"
/>
<path stroke="#FFFFFF" vector-effect="non-scaling-stroke" d="
  M 429.57 275.83
  L 427.54 287.77
  A 0.93 0.92 81.4 0 1 427.06 288.43
  C 417.06 293.59 398.90 297.49 390.59 287.77
  C 384.18 280.28 384.92 265.36 387.51 255.88
  C 391.40 241.64 400.55 232.49 416.00 232.67
  C 425.33 232.78 431.65 238.39 434.51 247.06
  A 0.69 0.69 0.0 0 0 435.25 247.54
  L 450.78 245.66
  A 0.33 0.33 0.0 0 0 451.06 245.25
  C 446.89 228.04 435.00 218.85 417.80 218.01
  Q 411.96 217.72 408.96 218.11
  Q 389.12 220.65 378.65 236.16
  Q 366.73 253.83 368.68 276.27
  C 370.13 292.89 380.32 306.30 397.55 308.43
  Q 420.94 311.31 441.85 298.68
  A 1.17 1.14 79.9 0 0 442.39 297.88
  L 448.71 260.76
  A 0.44 0.44 0.0 0 0 448.28 260.25
  L 410.67 260.25
  A 0.76 0.76 0.0 0 0 409.92 260.89
  L 407.59 274.55
  A 0.52 0.51 -85.2 0 0 408.09 275.15
  L 429.00 275.15
  A 0.59 0.58 -85.3 0 1 429.57 275.83"
/>
<path stroke="#FFFFFF" vector-effect="non-scaling-stroke" d="
  M 165.46 307.45
  L 182.37 307.45
  A 0.47 0.47 0.0 0 0 182.83 307.06
  L 188.85 271.64
  A 0.61 0.60 -86.5 0 1 189.42 271.13
  Q 196.65 270.76 201.78 271.68
  C 206.45 272.52 209.76 277.68 211.73 281.80
  Q 217.74 294.36 222.51 306.86
  A 0.94 0.93 -10.5 0 0 223.38 307.45
  L 241.07 307.45
  A 0.52 0.52 0.0 0 0 241.55 306.74
  Q 235.71 292.71 229.37 281.14
  Q 226.20 275.35 221.52 270.46
  A 0.28 0.28 0.0 0 1 221.68 269.99
  C 239.76 267.61 249.58 254.43 245.56 236.42
  C 242.69 223.55 232.42 219.53 220.25 219.45
  Q 208.73 219.36 180.35 219.41
  A 0.50 0.49 4.8 0 0 179.86 219.82
  L 165.05 306.96
  A 0.42 0.42 0.0 0 0 165.46 307.45"
/>
<path stroke="#FFFFFF" vector-effect="non-scaling-stroke" d="
  M 266.31 219.40
  A 0.40 0.40 0.0 0 0 265.91 219.73
  L 251.09 306.98
  A 0.40 0.40 0.0 0 0 251.48 307.45
  L 317.75 307.45
  A 0.40 0.40 0.0 0 0 318.15 307.12
  L 320.56 292.94
  A 0.40 0.40 0.0 0 0 320.17 292.47
  L 271.45 292.47
  A 0.40 0.40 0.0 0 1 271.06 292.00
  L 274.93 269.21
  A 0.40 0.40 0.0 0 1 275.33 268.88
  L 319.30 268.88
  A 0.40 0.40 0.0 0 0 319.70 268.55
  L 322.08 254.54
  A 0.40 0.40 0.0 0 0 321.69 254.07
  L 278.28 254.07
  A 0.40 0.40 0.0 0 1 277.89 253.60
  L 281.10 234.71
  A 0.40 0.40 0.0 0 1 281.50 234.38
  L 326.71 234.38
  A 0.40 0.40 0.0 0 0 327.11 234.05
  L 329.52 219.87
  A 0.40 0.40 0.0 0 0 329.13 219.40
  L 266.31 219.40"
/>
<path stroke="#FFFFFF" vector-effect="non-scaling-stroke" d="
  M 347.50 307.45
  A 0.46 0.46 0.0 0 0 347.96 307.07
  L 362.77 219.95
  A 0.46 0.46 0.0 0 0 362.32 219.41
  L 345.46 219.41
  A 0.46 0.46 0.0 0 0 345.00 219.79
  L 330.19 306.91
  A 0.46 0.46 0.0 0 0 330.64 307.45
  L 347.50 307.45"
/>
<path stroke="#FFFFFF" vector-effect="non-scaling-stroke" d="
  M 481.71 268.49
  A 0.40 0.40 0.0 0 1 482.11 268.16
  L 514.37 268.16
  A 0.40 0.40 0.0 0 1 514.76 268.63
  L 508.24 306.97
  A 0.40 0.40 0.0 0 0 508.63 307.44
  L 525.61 307.44
  A 0.40 0.40 0.0 0 0 526.01 307.11
  L 540.84 219.87
  A 0.40 0.40 0.0 0 0 540.45 219.40
  L 523.46 219.40
  A 0.40 0.40 0.0 0 0 523.06 219.73
  L 517.42 252.93
  A 0.40 0.40 0.0 0 1 517.02 253.26
  L 484.76 253.26
  A 0.40 0.40 0.0 0 1 484.37 252.79
  L 489.97 219.87
  A 0.40 0.40 0.0 0 0 489.58 219.40
  L 472.61 219.40
  A 0.40 0.40 0.0 0 0 472.21 219.73
  L 457.39 306.97
  A 0.40 0.40 0.0 0 0 457.78 307.44
  L 474.75 307.44
  A 0.40 0.40 0.0 0 0 475.15 307.11
  L 481.71 268.49"
/>
<path stroke="#FFFFFF" vector-effect="non-scaling-stroke" d="
  M 156.62 269.95
  A 0.39 0.39 0.0 0 0 157.01 269.63
  L 159.38 255.60
  A 0.39 0.39 0.0 0 0 159.00 255.14
  L 118.39 255.14
  A 0.39 0.39 0.0 0 1 118.01 254.68
  L 121.40 234.70
  A 0.39 0.39 0.0 0 1 121.79 234.38
  L 163.50 234.38
  A 0.39 0.39 0.0 0 0 163.89 234.06
  L 166.29 219.86
  A 0.39 0.39 0.0 0 0 165.91 219.40
  L 106.55 219.40
  A 0.39 0.39 0.0 0 0 106.16 219.72
  L 91.34 306.99
  A 0.39 0.39 0.0 0 0 91.72 307.45
  L 108.72 307.45
  A 0.39 0.39 0.0 0 0 109.11 307.13
  L 115.37 270.27
  A 0.39 0.39 0.0 0 1 115.76 269.95
  L 156.62 269.95"
/>
<path stroke="#FFFFFF" vector-effect="non-scaling-stroke" d="
  M 617.84 234.37
  A 0.35 0.35 0.0 0 0 618.19 234.08
  L 620.62 219.81
  A 0.35 0.35 0.0 0 0 620.28 219.40
  L 553.29 219.40
  A 0.35 0.35 0.0 0 0 552.94 219.69
  L 550.52 233.96
  A 0.35 0.35 0.0 0 0 550.86 234.37
  L 575.23 234.37
  A 0.35 0.35 0.0 0 1 575.57 234.78
  L 563.28 307.03
  A 0.35 0.35 0.0 0 0 563.62 307.44
  L 580.76 307.44
  A 0.35 0.35 0.0 0 0 581.11 307.15
  L 593.44 234.66
  A 0.35 0.35 0.0 0 1 593.79 234.37
  L 617.84 234.37"
/>
<path stroke="#800020" vector-effect="non-scaling-stroke" d="
  M 595.74 342.51
  Q 648.63 342.51 738.66 342.52
  Q 746.92 342.52 750.79 341.56
  C 764.97 338.04 775.54 325.73 780.11 312.12
  Q 782.61 304.69 798.54 254.17
  A 0.28 0.28 0.0 0 0 798.27 253.81
  L 627.07 253.81
  A 0.55 0.55 0.0 0 0 626.55 254.18
  L 595.47 342.13
  A 0.29 0.28 10.0 0 0 595.74 342.51"
/>
<path stroke="#800020" vector-effect="non-scaling-stroke" d="
  M 769.65 87.37
  L 754.58 79.05
  A 3.29 3.26 62.4 0 0 753.32 78.65
  Q 750.52 78.35 747.56 79.27
  A 0.78 0.78 0.0 0 0 747.23 80.57
  L 756.96 90.30
  A 0.85 0.84 61.0 0 0 757.74 90.53
  L 769.55 88.03
  A 0.36 0.36 0.0 0 0 769.65 87.37"
/>
<path stroke="#800020" vector-effect="non-scaling-stroke" d="
  M 766.67 105.61
  L 757.35 129.18
  A 0.72 0.72 0.0 0 0 758.13 130.16
  Q 764.05 129.21 767.64 124.64
  Q 776.18 113.78 784.23 102.09
  A 1.88 1.86 -80.1 0 1 785.28 101.34
  Q 790.98 99.77 805.49 95.98
  C 807.08 95.56 809.16 94.60 810.41 93.63
  A 1.43 1.43 0.0 0 0 810.77 91.77
  C 806.53 84.53 797.82 85.04 790.53 86.60
  Q 768.68 91.28 746.53 95.79
  C 742.93 96.53 741.14 97.23 739.04 94.31
  C 737.23 91.80 733.82 87.15 730.60 87.39
  A 1.90 1.90 0.0 0 0 728.89 89.73
  Q 730.77 97.51 731.92 103.53
  C 732.32 105.61 733.16 107.33 735.58 107.78
  Q 739.40 108.51 740.51 108.50
  Q 753.42 108.44 766.39 105.28
  A 0.25 0.24 -85.9 0 1 766.67 105.61"
/>
<path stroke="#800020" vector-effect="non-scaling-stroke" d="
  M 737.20 110.04
  A 0.24 0.24 0.0 0 0 736.96 110.28
  Q 737.02 113.19 738.15 115.66
  A 0.51 0.50 -37.3 0 0 739.00 115.77
  Q 741.17 113.13 742.06 110.44
  A 0.31 0.31 0.0 0 0 741.77 110.04
  L 737.20 110.04"
/>
<path stroke="#800020" vector-effect="non-scaling-stroke" d="
  M 743.0381 183.7929
  A 6.38 6.38 0.0 0 0 736.6693 177.4018
  L 688.8293 177.3183
  A 6.38 6.38 0.0 0 0 682.4382 183.6871
  L 682.4019 204.4871
  A 6.38 6.38 0.0 0 0 688.7707 210.8782
  L 736.6107 210.9617
  A 6.38 6.38 0.0 0 0 743.0018 204.5929
  L 743.0381 183.7929"
/>
<path stroke="#800020" vector-effect="non-scaling-stroke" d="
  M 764.51 189.64
  A 0.93 0.92 -15.6 0 0 763.72 189.20
  L 746.89 189.20
  A 1.20 1.20 0.0 0 0 745.69 190.40
  L 745.69 218.45
  A 1.24 1.23 -90.0 0 0 746.92 219.69
  L 750.28 219.69
  A 1.20 1.19 -71.2 0 0 751.23 219.22
  C 755.69 213.31 761.62 213.42 765.92 219.20
  A 1.23 1.22 71.3 0 0 766.90 219.69
  L 772.34 219.69
  A 1.29 1.28 -90.0 0 0 773.62 218.40
  L 773.62 205.03
  A 1.92 1.89 -61.0 0 0 773.35 204.05
  L 764.51 189.64"
/>
<path stroke="#800020" vector-effect="non-scaling-stroke" d="
  M 689.19 219.61
  Q 693.89 211.97 701.69 216.49
  C 702.62 217.03 703.51 218.55 704.41 219.71
  A 1.32 1.30 -18.4 0 0 705.45 220.22
  L 741.80 220.22
  A 1.21 1.20 -0.0 0 0 743.01 219.02
  L 743.01 214.14
  A 1.21 1.21 0.0 0 0 741.79 212.93
  Q 698.91 212.99 689.81 212.89
  Q 685.77 212.85 686.13 216.75
  Q 686.37 219.39 688.38 219.93
  A 0.73 0.72 22.9 0 0 689.19 219.61"
/>
<path stroke="#800020" vector-effect="non-scaling-stroke" d="
  M 702.52 222.26
  A 6.21 6.21 0.0 0 0 696.31 216.05
  A 6.21 6.21 0.0 0 0 690.10 222.26
  A 6.21 6.21 0.0 0 0 696.31 228.47
  A 6.21 6.21 0.0 0 0 702.52 222.26"
/>
<path stroke="#800020" vector-effect="non-scaling-stroke" d="
  M 764.67 222.27
  A 6.21 6.21 0.0 0 0 758.46 216.06
  A 6.21 6.21 0.0 0 0 752.25 222.27
  A 6.21 6.21 0.0 0 0 758.46 228.48
  A 6.21 6.21 0.0 0 0 764.67 222.27"
/>
<path stroke="#800020" vector-effect="non-scaling-stroke" d="
  M 749.43 202.57
  A 0.39 0.39 0.0 0 0 749.82 202.96
  L 767.83 202.96
  A 0.39 0.39 0.0 0 0 768.17 202.38
  L 762.11 191.87
  A 0.39 0.39 0.0 0 0 761.77 191.67
  L 749.82 191.67
  A 0.39 0.39 0.0 0 0 749.43 192.06
  L 749.43 202.57"
/>
<path stroke="#800020" vector-effect="non-scaling-stroke" d="
  M 772.53 214.74
  A 0.88 0.88 0.0 0 0 771.65 213.86
  L 771.25 213.86
  A 0.88 0.88 0.0 0 0 770.37 214.74
  L 770.37 217.24
  A 0.88 0.88 0.0 0 0 771.25 218.12
  L 771.65 218.12
  A 0.88 0.88 0.0 0 0 772.53 217.24
  L 772.53 214.74"
/>
<path stroke="#800020" vector-effect="non-scaling-stroke" d="
  M 700.32 222.27
  A 3.99 3.99 0.0 0 0 696.33 218.28
  A 3.99 3.99 0.0 0 0 692.34 222.27
  A 3.99 3.99 0.0 0 0 696.33 226.26
  A 3.99 3.99 0.0 0 0 700.32 222.27"
/>
<path stroke="#800020" vector-effect="non-scaling-stroke" d="
  M 762.44 222.27
  A 3.98 3.98 0.0 0 0 758.46 218.29
  A 3.98 3.98 0.0 0 0 754.48 222.27
  A 3.98 3.98 0.0 0 0 758.46 226.25
  A 3.98 3.98 0.0 0 0 762.44 222.27"
/>
<path stroke="#FFFFFF" vector-effect="non-scaling-stroke" d="
  M 195.13 234.92
  L 191.30 257.41
  A 0.32 0.32 0.0 0 0 191.60 257.78
  Q 204.04 258.22 214.98 257.03
  C 222.97 256.17 230.23 249.20 228.27 240.92
  C 227.02 235.60 222.50 234.54 217.75 234.46
  Q 208.86 234.31 195.74 234.39
  A 0.64 0.63 -85.6 0 0 195.13 234.92"
/>
<path stroke="#800020" vector-effect="non-scaling-stroke" d="
  M 662.85 297.48
  L 662.85 278.72
  A 0.65 0.64 0.0 0 0 662.20 278.08
  L 648.94 278.08
  A 0.87 0.86 -78.9 0 0 648.14 278.62
  Q 642.39 293.00 641.92 294.37
  Q 641.49 295.64 641.69 297.32
  A 0.66 0.65 86.5 0 0 642.34 297.90
  L 662.43 297.90
  A 0.42 0.42 0.0 0 0 662.85 297.48"
/>
<path stroke="#800020" vector-effect="non-scaling-stroke" d="
  M 684.61 291.22
  A 0.50 0.50 0.0 0 0 684.11 290.72
  L 669.15 290.72
  A 0.50 0.50 0.0 0 0 668.65 291.22
  L 668.65 296.78
  A 0.50 0.50 0.0 0 0 669.15 297.28
  L 684.11 297.28
  A 0.50 0.50 0.0 0 0 684.61 296.78
  L 684.61 291.22"
/>
<path stroke="#800020" vector-effect="non-scaling-stroke" d="
  M 703.31 291.25
  A 0.53 0.53 0.0 0 0 702.78 290.72
  L 687.88 290.72
  A 0.53 0.53 0.0 0 0 687.35 291.25
  L 687.35 296.75
  A 0.53 0.53 0.0 0 0 687.88 297.28
  L 702.78 297.28
  A 0.53 0.53 0.0 0 0 703.31 296.75
  L 703.31 291.25"
/>
<path stroke="#800020" vector-effect="non-scaling-stroke" d="
  M 721.94 291.16
  A 0.44 0.44 0.0 0 0 721.50 290.72
  L 706.56 290.72
  A 0.44 0.44 0.0 0 0 706.12 291.16
  L 706.12 296.84
  A 0.44 0.44 0.0 0 0 706.56 297.28
  L 721.50 297.28
  A 0.44 0.44 0.0 0 0 721.94 296.84
  L 721.94 291.16"
/>
<path stroke="#800020" vector-effect="non-scaling-stroke" d="
  M 739.99 291.18
  A 0.45 0.45 0.0 0 0 739.54 290.73
  L 724.62 290.73
  A 0.45 0.45 0.0 0 0 724.17 291.18
  L 724.17 296.84
  A 0.45 0.45 0.0 0 0 724.62 297.29
  L 739.54 297.29
  A 0.45 0.45 0.0 0 0 739.99 296.84
  L 739.99 291.18"
/>
<path stroke="#800020" vector-effect="non-scaling-stroke" d="
  M 672.11 305.15
  A 0.49 0.49 0.0 0 0 672.43 305.26
  L 690.21 305.26
  A 0.49 0.49 0.0 0 0 690.70 304.77
  L 690.70 299.20
  A 0.49 0.49 0.0 0 0 690.21 298.71
  L 669.15 298.71
  A 0.49 0.49 0.0 0 0 668.66 299.20
  L 668.66 302.02
  A 0.49 0.49 0.0 0 0 668.84 302.40
  L 672.11 305.15"
/>
<path stroke="#800020" vector-effect="non-scaling-stroke" d="
  M 708.9149 299.0762
  A 0.38 0.38 0.0 0 0 708.5343 298.6969
  L 693.4943 298.7231
  A 0.38 0.38 0.0 0 0 693.1150 299.1038
  L 693.1251 304.9038
  A 0.38 0.38 0.0 0 0 693.5057 305.2831
  L 708.5457 305.2569
  A 0.38 0.38 0.0 0 0 708.9250 304.8762
  L 708.9149 299.0762"
/>
<path stroke="#800020" vector-effect="non-scaling-stroke" d="
  M 712.00 305.25
  Q 718.78 305.33 723.74 305.19
  Q 726.52 305.11 729.24 303.95
  A 0.78 0.78 0.0 0 0 729.72 303.23
  L 729.72 299.11
  A 0.40 0.40 0.0 0 0 729.32 298.71
  L 712.02 298.71
  A 0.50 0.50 0.0 0 0 711.52 299.21
  L 711.52 304.77
  A 0.48 0.48 0.0 0 0 712.00 305.25"
/>
<path stroke="#800020" vector-effect="non-scaling-stroke" d="
  M 761.19 298.70
  L 742.99 298.70
  A 2.16 2.13 26.2 0 0 741.70 299.13
  C 737.34 302.48 731.63 305.88 726.02 307.33
  Q 723.47 307.99 718.70 307.89
  Q 715.46 307.83 672.07 307.66
  A 1.88 1.86 64.5 0 1 670.88 307.23
  L 663.44 301.00
  A 1.52 1.49 64.5 0 0 662.48 300.65
  L 636.37 300.65
  A 0.57 0.57 0.0 0 0 635.80 301.22
  C 635.75 306.24 635.87 313.67 638.99 317.23
  Q 640.57 319.04 644.24 319.04
  Q 699.15 319.03 750.12 319.04
  A 0.59 0.58 84.3 0 0 750.69 318.34
  C 749.72 313.67 751.89 311.88 755.32 308.48
  Q 757.66 306.15 761.49 302.93
  A 1.03 1.00 70.7 0 0 761.85 302.15
  L 761.85 299.36
  A 0.66 0.66 0.0 0 0 761.19 298.70"
/>
<path stroke="#800020" vector-effect="non-scaling-stroke" d="
  M 662.0425 283.9788
  A 0.72 0.72 0.0 0 0 661.3351 283.2463
  L 658.3356 283.1940
  A 0.72 0.72 0.0 0 0 657.6031 283.9013
  L 657.5975 284.2212
  A 0.72 0.72 0.0 0 0 658.3049 284.9537
  L 661.3044 285.0060
  A 0.72 0.72 0.0 0 0 662.0369 284.2987
  L 662.0425 283.9788"
/>
<path stroke="#800020" vector-effect="non-scaling-stroke" d="
  M 662.0411 286.9150
  A 0.62 0.62 0.0 0 0 661.4244 286.2918
  L 656.9244 286.2682
  A 0.62 0.62 0.0 0 0 656.3012 286.8850
  L 656.2989 287.3250
  A 0.62 0.62 0.0 0 0 656.9156 287.9482
  L 661.4156 287.9718
  A 0.62 0.62 0.0 0 0 662.0388 287.3550
  L 662.0411 286.9150"
/>
<path stroke="#800020" vector-effect="non-scaling-stroke" d="
  M 756.9393 301.3961
  A 0.42 0.42 0.0 0 0 756.5237 300.9717
  L 752.3839 300.9284
  A 0.42 0.42 0.0 0 0 751.9596 301.3440
  L 751.9407 303.1439
  A 0.42 0.42 0.0 0 0 752.3563 303.5683
  L 756.4961 303.6116
  A 0.42 0.42 0.0 0 0 756.9204 303.1960
  L 756.9393 301.3961"
/>
</g>
<path fill="none" d="
  M 985.00 0.00
  L 985.00 415.00
  L 0.00 415.00
  L 0.00 0.00
  L 985.00 0.00
  Z
  M 665.42 146.18
  L 832.29 146.18
  A 0.68 0.68 0.0 0 0 832.94 145.71
  L 860.73 57.98
  A 0.37 0.37 0.0 0 0 860.38 57.50
  Q 808.99 57.46 722.75 57.50
  C 709.38 57.51 698.19 65.36 690.92 76.18
  Q 687.60 81.14 682.89 94.57
  Q 669.24 133.54 664.91 145.45
  A 0.54 0.54 0.0 0 0 665.42 146.18
  Z
  M 631.90 166.20
  L 617.43 154.09
  A 0.46 0.45 -51.1 0 0 616.78 154.16
  C 609.63 163.20 596.52 166.66 586.27 161.44
  C 576.89 156.66 573.38 145.91 574.40 135.99
  Q 575.97 120.76 586.86 111.23
  C 596.23 103.02 613.11 100.59 621.69 111.27
  A 0.61 0.60 53.0 0 0 622.52 111.39
  L 639.50 99.23
  A 0.57 0.55 -35.5 0 0 639.64 98.45
  C 631.97 87.54 618.25 84.17 605.45 85.27
  C 573.72 87.98 551.87 112.28 552.68 144.17
  C 553.16 163.19 564.90 177.25 583.55 181.53
  C 601.14 185.57 619.83 181.01 631.98 167.26
  A 0.75 0.74 40.7 0 0 631.90 166.20
  Z
  M 197.29 109.70
  L 187.44 180.28
  A 0.30 0.30 0.0 0 0 187.74 180.62
  L 207.34 180.62
  A 0.79 0.78 3.7 0 0 208.12 179.94
  L 220.92 88.24
  A 0.73 0.73 0.0 0 0 220.20 87.41
  L 190.49 87.41
  A 0.68 0.67 -76.2 0 0 189.89 87.78
  L 160.29 147.61
  A 0.25 0.25 0.0 0 1 159.82 147.55
  L 147.17 87.83
  A 0.54 0.53 -5.9 0 0 146.64 87.41
  L 116.68 87.41
  A 0.79 0.78 3.7 0 0 115.90 88.09
  L 103.05 180.12
  A 0.44 0.44 0.0 0 0 103.49 180.62
  L 123.33 180.62
  A 0.34 0.34 0.0 0 0 123.67 180.33
  L 133.47 110.10
  A 0.18 0.18 0.0 0 1 133.82 110.09
  L 147.13 180.21
  A 0.50 0.49 -4.8 0 0 147.62 180.62
  L 162.62 180.62
  A 0.48 0.48 0.0 0 0 163.05 180.35
  L 197.10 109.64
  A 0.10 0.10 0.0 0 1 197.29 109.70
  Z
  M 454.00 161.92
  A 0.42 0.42 0.0 0 0 453.59 161.44
  L 416.68 161.44
  A 0.42 0.42 0.0 0 1 416.27 160.96
  L 426.46 87.89
  A 0.42 0.42 0.0 0 0 426.05 87.41
  L 406.27 87.41
  A 0.42 0.42 0.0 0 0 405.85 87.77
  L 392.96 180.14
  A 0.42 0.42 0.0 0 0 393.37 180.62
  L 451.02 180.62
  A 0.42 0.42 0.0 0 0 451.44 180.26
  L 454.00 161.92
  Z
  M 491.49 87.40
  L 472.16 87.40
  A 0.66 0.66 0.0 0 0 471.51 87.97
  Q 467.81 113.64 463.45 145.64
  C 461.13 162.72 468.24 177.10 485.29 181.52
  Q 492.49 183.38 501.68 182.79
  C 518.28 181.72 531.86 172.67 538.64 157.26
  Q 541.46 150.83 543.24 135.82
  Q 543.25 135.69 549.92 87.95
  A 0.48 0.48 0.0 0 0 549.44 87.41
  L 529.77 87.41
  A 0.45 0.44 -86.3 0 0 529.33 87.80
  Q 525.00 118.42 522.02 140.13
  Q 521.06 147.17 519.73 150.17
  C 516.33 157.81 508.87 163.89 500.94 163.83
  Q 486.10 163.72 484.02 149.10
  A 11.11 11.11 0.0 0 1 484.02 146.06
  L 492.11 88.11
  A 0.63 0.63 0.0 0 0 491.49 87.40
  Z
  M 292.27 124.08
  A 0.37 0.37 0.0 0 0 291.90 123.66
  L 252.57 123.66
  A 0.37 0.37 0.0 0 1 252.20 123.24
  L 254.48 106.92
  A 0.37 0.37 0.0 0 1 254.84 106.60
  L 296.82 106.60
  A 0.37 0.37 0.0 0 0 297.18 106.28
  L 299.76 87.83
  A 0.37 0.37 0.0 0 0 299.39 87.41
  L 236.89 87.41
  A 0.37 0.37 0.0 0 0 236.53 87.73
  L 223.62 180.20
  A 0.37 0.37 0.0 0 0 223.99 180.62
  L 288.83 180.62
  A 0.37 0.37 0.0 0 0 289.19 180.30
  L 291.77 161.86
  A 0.37 0.37 0.0 0 0 291.40 161.44
  L 247.28 161.44
  A 0.37 0.37 0.0 0 1 246.91 161.02
  L 249.41 143.11
  A 0.37 0.37 0.0 0 1 249.77 142.79
  L 289.35 142.79
  A 0.37 0.37 0.0 0 0 289.71 142.47
  L 292.27 124.08
  Z
  M 330.58 125.19
  L 335.77 88.06
  A 0.57 0.57 0.0 0 0 335.20 87.41
  L 315.61 87.41
  A 0.47 0.46 -85.7 0 0 315.15 87.81
  L 302.28 180.05
  A 0.51 0.51 0.0 0 0 302.78 180.63
  L 322.40 180.63
  A 0.51 0.50 -86.1 0 0 322.90 180.19
  L 328.93 136.98
  A 0.13 0.13 0.0 0 1 329.17 136.92
  L 360.20 180.24
  A 0.90 0.89 72.0 0 0 360.93 180.62
  L 388.59 180.62
  A 0.35 0.35 0.0 0 0 388.87 180.05
  L 351.56 131.06
  A 0.43 0.42 -39.2 0 1 351.62 130.49
  L 398.11 88.05
  A 0.37 0.36 -65.9 0 0 397.87 87.41
  L 372.27 87.41
  A 1.26 1.24 23.0 0 0 371.41 87.75
  L 331.01 125.41
  A 0.26 0.26 0.0 0 1 330.58 125.19
  Z
  M 829.69 155.96
  A 0.32 0.32 0.0 0 0 829.38 155.54
  L 661.63 155.54
  A 0.32 0.32 0.0 0 0 661.32 155.75
  L 630.13 244.03
  A 0.32 0.32 0.0 0 0 630.43 244.46
  L 801.41 244.46
  A 0.32 0.32 0.0 0 0 801.71 244.24
  L 829.69 155.96
  Z
  M 429.57 275.83
  L 427.54 287.77
  A 0.93 0.92 81.4 0 1 427.06 288.43
  C 417.06 293.59 398.90 297.49 390.59 287.77
  C 384.18 280.28 384.92 265.36 387.51 255.88
  C 391.40 241.64 400.55 232.49 416.00 232.67
  C 425.33 232.78 431.65 238.39 434.51 247.06
  A 0.69 0.69 0.0 0 0 435.25 247.54
  L 450.78 245.66
  A 0.33 0.33 0.0 0 0 451.06 245.25
  C 446.89 228.04 435.00 218.85 417.80 218.01
  Q 411.96 217.72 408.96 218.11
  Q 389.12 220.65 378.65 236.16
  Q 366.73 253.83 368.68 276.27
  C 370.13 292.89 380.32 306.30 397.55 308.43
  Q 420.94 311.31 441.85 298.68
  A 1.17 1.14 79.9 0 0 442.39 297.88
  L 448.71 260.76
  A 0.44 0.44 0.0 0 0 448.28 260.25
  L 410.67 260.25
  A 0.76 0.76 0.0 0 0 409.92 260.89
  L 407.59 274.55
  A 0.52 0.51 -85.2 0 0 408.09 275.15
  L 429.00 275.15
  A 0.59 0.58 -85.3 0 1 429.57 275.83
  Z
  M 165.46 307.45
  L 182.37 307.45
  A 0.47 0.47 0.0 0 0 182.83 307.06
  L 188.85 271.64
  A 0.61 0.60 -86.5 0 1 189.42 271.13
  Q 196.65 270.76 201.78 271.68
  C 206.45 272.52 209.76 277.68 211.73 281.80
  Q 217.74 294.36 222.51 306.86
  A 0.94 0.93 -10.5 0 0 223.38 307.45
  L 241.07 307.45
  A 0.52 0.52 0.0 0 0 241.55 306.74
  Q 235.71 292.71 229.37 281.14
  Q 226.20 275.35 221.52 270.46
  A 0.28 0.28 0.0 0 1 221.68 269.99
  C 239.76 267.61 249.58 254.43 245.56 236.42
  C 242.69 223.55 232.42 219.53 220.25 219.45
  Q 208.73 219.36 180.35 219.41
  A 0.50 0.49 4.8 0 0 179.86 219.82
  L 165.05 306.96
  A 0.42 0.42 0.0 0 0 165.46 307.45
  Z
  M 266.31 219.40
  A 0.40 0.40 0.0 0 0 265.91 219.73
  L 251.09 306.98
  A 0.40 0.40 0.0 0 0 251.48 307.45
  L 317.75 307.45
  A 0.40 0.40 0.0 0 0 318.15 307.12
  L 320.56 292.94
  A 0.40 0.40 0.0 0 0 320.17 292.47
  L 271.45 292.47
  A 0.40 0.40 0.0 0 1 271.06 292.00
  L 274.93 269.21
  A 0.40 0.40 0.0 0 1 275.33 268.88
  L 319.30 268.88
  A 0.40 0.40 0.0 0 0 319.70 268.55
  L 322.08 254.54
  A 0.40 0.40 0.0 0 0 321.69 254.07
  L 278.28 254.07
  A 0.40 0.40 0.0 0 1 277.89 253.60
  L 281.10 234.71
  A 0.40 0.40 0.0 0 1 281.50 234.38
  L 326.71 234.38
  A 0.40 0.40 0.0 0 0 327.11 234.05
  L 329.52 219.87
  A 0.40 0.40 0.0 0 0 329.13 219.40
  L 266.31 219.40
  Z
  M 347.50 307.45
  A 0.46 0.46 0.0 0 0 347.96 307.07
  L 362.77 219.95
  A 0.46 0.46 0.0 0 0 362.32 219.41
  L 345.46 219.41
  A 0.46 0.46 0.0 0 0 345.00 219.79
  L 330.19 306.91
  A 0.46 0.46 0.0 0 0 330.64 307.45
  L 347.50 307.45
  Z
  M 481.71 268.49
  A 0.40 0.40 0.0 0 1 482.11 268.16
  L 514.37 268.16
  A 0.40 0.40 0.0 0 1 514.76 268.63
  L 508.24 306.97
  A 0.40 0.40 0.0 0 0 508.63 307.44
  L 525.61 307.44
  A 0.40 0.40 0.0 0 0 526.01 307.11
  L 540.84 219.87
  A 0.40 0.40 0.0 0 0 540.45 219.40
  L 523.46 219.40
  A 0.40 0.40 0.0 0 0 523.06 219.73
  L 517.42 252.93
  A 0.40 0.40 0.0 0 1 517.02 253.26
  L 484.76 253.26
  A 0.40 0.40 0.0 0 1 484.37 252.79
  L 489.97 219.87
  A 0.40 0.40 0.0 0 0 489.58 219.40
  L 472.61 219.40
  A 0.40 0.40 0.0 0 0 472.21 219.73
  L 457.39 306.97
  A 0.40 0.40 0.0 0 0 457.78 307.44
  L 474.75 307.44
  A 0.40 0.40 0.0 0 0 475.15 307.11
  L 481.71 268.49
  Z
  M 156.62 269.95
  A 0.39 0.39 0.0 0 0 157.01 269.63
  L 159.38 255.60
  A 0.39 0.39 0.0 0 0 159.00 255.14
  L 118.39 255.14
  A 0.39 0.39 0.0 0 1 118.01 254.68
  L 121.40 234.70
  A 0.39 0.39 0.0 0 1 121.79 234.38
  L 163.50 234.38
  A 0.39 0.39 0.0 0 0 163.89 234.06
  L 166.29 219.86
  A 0.39 0.39 0.0 0 0 165.91 219.40
  L 106.55 219.40
  A 0.39 0.39 0.0 0 0 106.16 219.72
  L 91.34 306.99
  A 0.39 0.39 0.0 0 0 91.72 307.45
  L 108.72 307.45
  A 0.39 0.39 0.0 0 0 109.11 307.13
  L 115.37 270.27
  A 0.39 0.39 0.0 0 1 115.76 269.95
  L 156.62 269.95
  Z
  M 617.84 234.37
  A 0.35 0.35 0.0 0 0 618.19 234.08
  L 620.62 219.81
  A 0.35 0.35 0.0 0 0 620.28 219.40
  L 553.29 219.40
  A 0.35 0.35 0.0 0 0 552.94 219.69
  L 550.52 233.96
  A 0.35 0.35 0.0 0 0 550.86 234.37
  L 575.23 234.37
  A 0.35 0.35 0.0 0 1 575.57 234.78
  L 563.28 307.03
  A 0.35 0.35 0.0 0 0 563.62 307.44
  L 580.76 307.44
  A 0.35 0.35 0.0 0 0 581.11 307.15
  L 593.44 234.66
  A 0.35 0.35 0.0 0 1 593.79 234.37
  L 617.84 234.37
  Z
  M 595.74 342.51
  Q 648.63 342.51 738.66 342.52
  Q 746.92 342.52 750.79 341.56
  C 764.97 338.04 775.54 325.73 780.11 312.12
  Q 782.61 304.69 798.54 254.17
  A 0.28 0.28 0.0 0 0 798.27 253.81
  L 627.07 253.81
  A 0.55 0.55 0.0 0 0 626.55 254.18
  L 595.47 342.13
  A 0.29 0.28 10.0 0 0 595.74 342.51
  Z"
/>
<path fill="#800020" d="
  M 664.91 145.45
  Q 669.24 133.54 682.89 94.57
  Q 687.60 81.14 690.92 76.18
  C 698.19 65.36 709.38 57.51 722.75 57.50
  Q 808.99 57.46 860.38 57.50
  A 0.37 0.37 0.0 0 1 860.73 57.98
  L 832.94 145.71
  A 0.68 0.68 0.0 0 1 832.29 146.18
  L 665.42 146.18
  A 0.54 0.54 0.0 0 1 664.91 145.45
  Z
  M 769.65 87.37
  L 754.58 79.05
  A 3.29 3.26 62.4 0 0 753.32 78.65
  Q 750.52 78.35 747.56 79.27
  A 0.78 0.78 0.0 0 0 747.23 80.57
  L 756.96 90.30
  A 0.85 0.84 61.0 0 0 757.74 90.53
  L 769.55 88.03
  A 0.36 0.36 0.0 0 0 769.65 87.37
  Z
  M 766.67 105.61
  L 757.35 129.18
  A 0.72 0.72 0.0 0 0 758.13 130.16
  Q 764.05 129.21 767.64 124.64
  Q 776.18 113.78 784.23 102.09
  A 1.88 1.86 -80.1 0 1 785.28 101.34
  Q 790.98 99.77 805.49 95.98
  C 807.08 95.56 809.16 94.60 810.41 93.63
  A 1.43 1.43 0.0 0 0 810.77 91.77
  C 806.53 84.53 797.82 85.04 790.53 86.60
  Q 768.68 91.28 746.53 95.79
  C 742.93 96.53 741.14 97.23 739.04 94.31
  C 737.23 91.80 733.82 87.15 730.60 87.39
  A 1.90 1.90 0.0 0 0 728.89 89.73
  Q 730.77 97.51 731.92 103.53
  C 732.32 105.61 733.16 107.33 735.58 107.78
  Q 739.40 108.51 740.51 108.50
  Q 753.42 108.44 766.39 105.28
  A 0.25 0.24 -85.9 0 1 766.67 105.61
  Z
  M 737.20 110.04
  A 0.24 0.24 0.0 0 0 736.96 110.28
  Q 737.02 113.19 738.15 115.66
  A 0.51 0.50 -37.3 0 0 739.00 115.77
  Q 741.17 113.13 742.06 110.44
  A 0.31 0.31 0.0 0 0 741.77 110.04
  L 737.20 110.04
  Z"
/>
<path fill="#FFFFFF" d="
  M 769.65 87.37
  A 0.36 0.36 0.0 0 1 769.55 88.03
  L 757.74 90.53
  A 0.85 0.84 61.0 0 1 756.96 90.30
  L 747.23 80.57
  A 0.78 0.78 0.0 0 1 747.56 79.27
  Q 750.52 78.35 753.32 78.65
  A 3.29 3.26 62.4 0 1 754.58 79.05
  L 769.65 87.37
  Z"
/>
<path fill="#FFFFFF" d="
  M 631.98 167.26
  C 619.83 181.01 601.14 185.57 583.55 181.53
  C 564.90 177.25 553.16 163.19 552.68 144.17
  C 551.87 112.28 573.72 87.98 605.45 85.27
  C 618.25 84.17 631.97 87.54 639.64 98.45
  A 0.57 0.55 -35.5 0 1 639.50 99.23
  L 622.52 111.39
  A 0.61 0.60 53.0 0 1 621.69 111.27
  C 613.11 100.59 596.23 103.02 586.86 111.23
  Q 575.97 120.76 574.40 135.99
  C 573.38 145.91 576.89 156.66 586.27 161.44
  C 596.52 166.66 609.63 163.20 616.78 154.16
  A 0.46 0.45 -51.1 0 1 617.43 154.09
  L 631.90 166.20
  A 0.75 0.74 40.7 0 1 631.98 167.26
  Z"
/>
<path fill="#FFFFFF" d="
  M 766.67 105.61
  A 0.25 0.24 -85.9 0 0 766.39 105.28
  Q 753.42 108.44 740.51 108.50
  Q 739.40 108.51 735.58 107.78
  C 733.16 107.33 732.32 105.61 731.92 103.53
  Q 730.77 97.51 728.89 89.73
  A 1.90 1.90 0.0 0 1 730.60 87.39
  C 733.82 87.15 737.23 91.80 739.04 94.31
  C 741.14 97.23 742.93 96.53 746.53 95.79
  Q 768.68 91.28 790.53 86.60
  C 797.82 85.04 806.53 84.53 810.77 91.77
  A 1.43 1.43 0.0 0 1 810.41 93.63
  C 809.16 94.60 807.08 95.56 805.49 95.98
  Q 790.98 99.77 785.28 101.34
  A 1.88 1.86 -80.1 0 0 784.23 102.09
  Q 776.18 113.78 767.64 124.64
  Q 764.05 129.21 758.13 130.16
  A 0.72 0.72 0.0 0 1 757.35 129.18
  L 766.67 105.61
  Z"
/>
<path fill="#FFFFFF" d="
  M 197.29 109.70
  A 0.10 0.10 0.0 0 0 197.10 109.64
  L 163.05 180.35
  A 0.48 0.48 0.0 0 1 162.62 180.62
  L 147.62 180.62
  A 0.50 0.49 -4.8 0 1 147.13 180.21
  L 133.82 110.09
  A 0.18 0.18 0.0 0 0 133.47 110.10
  L 123.67 180.33
  A 0.34 0.34 0.0 0 1 123.33 180.62
  L 103.49 180.62
  A 0.44 0.44 0.0 0 1 103.05 180.12
  L 115.90 88.09
  A 0.79 0.78 3.7 0 1 116.68 87.41
  L 146.64 87.41
  A 0.54 0.53 -5.9 0 1 147.17 87.83
  L 159.82 147.55
  A 0.25 0.25 0.0 0 0 160.29 147.61
  L 189.89 87.78
  A 0.68 0.67 -76.2 0 1 190.49 87.41
  L 220.20 87.41
  A 0.73 0.73 0.0 0 1 220.92 88.24
  L 208.12 179.94
  A 0.79 0.78 3.7 0 1 207.34 180.62
  L 187.74 180.62
  A 0.30 0.30 0.0 0 1 187.44 180.28
  L 197.29 109.70
  Z"
/>
<path fill="#FFFFFF" d="
  M 454.00 161.92
  L 451.44 180.26
  A 0.42 0.42 0.0 0 1 451.02 180.62
  L 393.37 180.62
  A 0.42 0.42 0.0 0 1 392.96 180.14
  L 405.85 87.77
  A 0.42 0.42 0.0 0 1 406.27 87.41
  L 426.05 87.41
  A 0.42 0.42 0.0 0 1 426.46 87.89
  L 416.27 160.96
  A 0.42 0.42 0.0 0 0 416.68 161.44
  L 453.59 161.44
  A 0.42 0.42 0.0 0 1 454.00 161.92
  Z"
/>
<path fill="#FFFFFF" d="
  M 491.49 87.40
  A 0.63 0.63 0.0 0 1 492.11 88.11
  L 484.02 146.06
  A 11.11 11.11 0.0 0 0 484.02 149.10
  Q 486.10 163.72 500.94 163.83
  C 508.87 163.89 516.33 157.81 519.73 150.17
  Q 521.06 147.17 522.02 140.13
  Q 525.00 118.42 529.33 87.80
  A 0.45 0.44 -86.3 0 1 529.77 87.41
  L 549.44 87.41
  A 0.48 0.48 0.0 0 1 549.92 87.95
  Q 543.25 135.69 543.24 135.82
  Q 541.46 150.83 538.64 157.26
  C 531.86 172.67 518.28 181.72 501.68 182.79
  Q 492.49 183.38 485.29 181.52
  C 468.24 177.10 461.13 162.72 463.45 145.64
  Q 467.81 113.64 471.51 87.97
  A 0.66 0.66 0.0 0 1 472.16 87.40
  L 491.49 87.40
  Z"
/>
<path fill="#FFFFFF" d="
  M 292.27 124.08
  L 289.71 142.47
  A 0.37 0.37 0.0 0 1 289.35 142.79
  L 249.77 142.79
  A 0.37 0.37 0.0 0 0 249.41 143.11
  L 246.91 161.02
  A 0.37 0.37 0.0 0 0 247.28 161.44
  L 291.40 161.44
  A 0.37 0.37 0.0 0 1 291.77 161.86
  L 289.19 180.30
  A 0.37 0.37 0.0 0 1 288.83 180.62
  L 223.99 180.62
  A 0.37 0.37 0.0 0 1 223.62 180.20
  L 236.53 87.73
  A 0.37 0.37 0.0 0 1 236.89 87.41
  L 299.39 87.41
  A 0.37 0.37 0.0 0 1 299.76 87.83
  L 297.18 106.28
  A 0.37 0.37 0.0 0 1 296.82 106.60
  L 254.84 106.60
  A 0.37 0.37 0.0 0 0 254.48 106.92
  L 252.20 123.24
  A 0.37 0.37 0.0 0 0 252.57 123.66
  L 291.90 123.66
  A 0.37 0.37 0.0 0 1 292.27 124.08
  Z"
/>
<path fill="#FFFFFF" d="
  M 331.01 125.41
  L 371.41 87.75
  A 1.26 1.24 23.0 0 1 372.27 87.41
  L 397.87 87.41
  A 0.37 0.36 -65.9 0 1 398.11 88.05
  L 351.62 130.49
  A 0.43 0.42 -39.2 0 0 351.56 131.06
  L 388.87 180.05
  A 0.35 0.35 0.0 0 1 388.59 180.62
  L 360.93 180.62
  A 0.90 0.89 72.0 0 1 360.20 180.24
  L 329.17 136.92
  A 0.13 0.13 0.0 0 0 328.93 136.98
  L 322.90 180.19
  A 0.51 0.50 -86.1 0 1 322.40 180.63
  L 302.78 180.63
  A 0.51 0.51 0.0 0 1 302.28 180.05
  L 315.15 87.81
  A 0.47 0.46 -85.7 0 1 315.61 87.41
  L 335.20 87.41
  A 0.57 0.57 0.0 0 1 335.77 88.06
  L 330.58 125.19
  A 0.26 0.26 0.0 0 0 331.01 125.41
  Z"
/>
<path fill="#FFFFFF" d="
  M 742.06 110.44
  Q 741.17 113.13 739.00 115.77
  A 0.51 0.50 -37.3 0 1 738.15 115.66
  Q 737.02 113.19 736.96 110.28
  A 0.24 0.24 0.0 0 1 737.20 110.04
  L 741.77 110.04
  A 0.31 0.31 0.0 0 1 742.06 110.44
  Z"
/>
<path fill="#800020" d="
  M 829.69 155.96
  L 801.71 244.24
  A 0.32 0.32 0.0 0 1 801.41 244.46
  L 630.43 244.46
  A 0.32 0.32 0.0 0 1 630.13 244.03
  L 661.32 155.75
  A 0.32 0.32 0.0 0 1 661.63 155.54
  L 829.38 155.54
  A 0.32 0.32 0.0 0 1 829.69 155.96
  Z
  M 743.0381 183.7929
  A 6.38 6.38 0.0 0 0 736.6693 177.4018
  L 688.8293 177.3183
  A 6.38 6.38 0.0 0 0 682.4382 183.6871
  L 682.4019 204.4871
  A 6.38 6.38 0.0 0 0 688.7707 210.8782
  L 736.6107 210.9617
  A 6.38 6.38 0.0 0 0 743.0018 204.5929
  L 743.0381 183.7929
  Z
  M 764.51 189.64
  A 0.93 0.92 -15.6 0 0 763.72 189.20
  L 746.89 189.20
  A 1.20 1.20 0.0 0 0 745.69 190.40
  L 745.69 218.45
  A 1.24 1.23 -90.0 0 0 746.92 219.69
  L 750.28 219.69
  A 1.20 1.19 -71.2 0 0 751.23 219.22
  C 755.69 213.31 761.62 213.42 765.92 219.20
  A 1.23 1.22 71.3 0 0 766.90 219.69
  L 772.34 219.69
  A 1.29 1.28 -90.0 0 0 773.62 218.40
  L 773.62 205.03
  A 1.92 1.89 -61.0 0 0 773.35 204.05
  L 764.51 189.64
  Z
  M 689.19 219.61
  Q 693.89 211.97 701.69 216.49
  C 702.62 217.03 703.51 218.55 704.41 219.71
  A 1.32 1.30 -18.4 0 0 705.45 220.22
  L 741.80 220.22
  A 1.21 1.20 -0.0 0 0 743.01 219.02
  L 743.01 214.14
  A 1.21 1.21 0.0 0 0 741.79 212.93
  Q 698.91 212.99 689.81 212.89
  Q 685.77 212.85 686.13 216.75
  Q 686.37 219.39 688.38 219.93
  A 0.73 0.72 22.9 0 0 689.19 219.61
  Z
  M 702.52 222.26
  A 6.21 6.21 0.0 0 0 696.31 216.05
  A 6.21 6.21 0.0 0 0 690.10 222.26
  A 6.21 6.21 0.0 0 0 696.31 228.47
  A 6.21 6.21 0.0 0 0 702.52 222.26
  Z
  M 764.67 222.27
  A 6.21 6.21 0.0 0 0 758.46 216.06
  A 6.21 6.21 0.0 0 0 752.25 222.27
  A 6.21 6.21 0.0 0 0 758.46 228.48
  A 6.21 6.21 0.0 0 0 764.67 222.27
  Z"
/>
<rect fill="#FFFFFF" x="-30.30" y="-16.78" transform="translate(712.72,194.14) rotate(0.1)" width="60.60" height="33.56" rx="6.38"/>
<path fill="#FFFFFF" d="
  M 764.51 189.64
  L 773.35 204.05
  A 1.92 1.89 -61.0 0 1 773.62 205.03
  L 773.62 218.40
  A 1.29 1.28 90.0 0 1 772.34 219.69
  L 766.90 219.69
  A 1.23 1.22 71.3 0 1 765.92 219.20
  C 761.62 213.42 755.69 213.31 751.23 219.22
  A 1.20 1.19 -71.2 0 1 750.28 219.69
  L 746.92 219.69
  A 1.24 1.23 90.0 0 1 745.69 218.45
  L 745.69 190.40
  A 1.20 1.20 0.0 0 1 746.89 189.20
  L 763.72 189.20
  A 0.93 0.92 -15.6 0 1 764.51 189.64
  Z
  M 749.43 202.57
  A 0.39 0.39 0.0 0 0 749.82 202.96
  L 767.83 202.96
  A 0.39 0.39 0.0 0 0 768.17 202.38
  L 762.11 191.87
  A 0.39 0.39 0.0 0 0 761.77 191.67
  L 749.82 191.67
  A 0.39 0.39 0.0 0 0 749.43 192.06
  L 749.43 202.57
  Z
  M 772.53 214.74
  A 0.88 0.88 0.0 0 0 771.65 213.86
  L 771.25 213.86
  A 0.88 0.88 0.0 0 0 770.37 214.74
  L 770.37 217.24
  A 0.88 0.88 0.0 0 0 771.25 218.12
  L 771.65 218.12
  A 0.88 0.88 0.0 0 0 772.53 217.24
  L 772.53 214.74
  Z"
/>
<path fill="#800020" d="
  M 749.43 202.57
  L 749.43 192.06
  A 0.39 0.39 0.0 0 1 749.82 191.67
  L 761.77 191.67
  A 0.39 0.39 0.0 0 1 762.11 191.87
  L 768.17 202.38
  A 0.39 0.39 0.0 0 1 767.83 202.96
  L 749.82 202.96
  A 0.39 0.39 0.0 0 1 749.43 202.57
  Z"
/>
<path fill="#FFFFFF" d="
  M 688.38 219.93
  Q 686.37 219.39 686.13 216.75
  Q 685.77 212.85 689.81 212.89
  Q 698.91 212.99 741.79 212.93
  A 1.21 1.21 0.0 0 1 743.01 214.14
  L 743.01 219.02
  A 1.21 1.20 -0.0 0 1 741.80 220.22
  L 705.45 220.22
  A 1.32 1.30 -18.4 0 1 704.41 219.71
  C 703.51 218.55 702.62 217.03 701.69 216.49
  Q 693.89 211.97 689.19 219.61
  A 0.73 0.72 22.9 0 1 688.38 219.93
  Z"
/>
<rect fill="#800020" x="770.37" y="213.86" width="2.16" height="4.26" rx="0.88"/>
<path fill="#FFFFFF" d="
  M 702.52 222.26
  A 6.21 6.21 0.0 0 1 696.31 228.47
  A 6.21 6.21 0.0 0 1 690.10 222.26
  A 6.21 6.21 0.0 0 1 696.31 216.05
  A 6.21 6.21 0.0 0 1 702.52 222.26
  Z
  M 700.32 222.27
  A 3.99 3.99 0.0 0 0 696.33 218.28
  A 3.99 3.99 0.0 0 0 692.34 222.27
  A 3.99 3.99 0.0 0 0 696.33 226.26
  A 3.99 3.99 0.0 0 0 700.32 222.27
  Z"
/>
<path fill="#FFFFFF" d="
  M 764.67 222.27
  A 6.21 6.21 0.0 0 1 758.46 228.48
  A 6.21 6.21 0.0 0 1 752.25 222.27
  A 6.21 6.21 0.0 0 1 758.46 216.06
  A 6.21 6.21 0.0 0 1 764.67 222.27
  Z
  M 762.44 222.27
  A 3.98 3.98 0.0 0 0 758.46 218.29
  A 3.98 3.98 0.0 0 0 754.48 222.27
  A 3.98 3.98 0.0 0 0 758.46 226.25
  A 3.98 3.98 0.0 0 0 762.44 222.27
  Z"
/>
<path fill="#FFFFFF" d="
  M 429.00 275.15
  L 408.09 275.15
  A 0.52 0.51 -85.2 0 1 407.59 274.55
  L 409.92 260.89
  A 0.76 0.76 0.0 0 1 410.67 260.25
  L 448.28 260.25
  A 0.44 0.44 0.0 0 1 448.71 260.76
  L 442.39 297.88
  A 1.17 1.14 79.9 0 1 441.85 298.68
  Q 420.94 311.31 397.55 308.43
  C 380.32 306.30 370.13 292.89 368.68 276.27
  Q 366.73 253.83 378.65 236.16
  Q 389.12 220.65 408.96 218.11
  Q 411.96 217.72 417.80 218.01
  C 435.00 218.85 446.89 228.04 451.06 245.25
  A 0.33 0.33 0.0 0 1 450.78 245.66
  L 435.25 247.54
  A 0.69 0.69 0.0 0 1 434.51 247.06
  C 431.65 238.39 425.33 232.78 416.00 232.67
  C 400.55 232.49 391.40 241.64 387.51 255.88
  C 384.92 265.36 384.18 280.28 390.59 287.77
  C 398.90 297.49 417.06 293.59 427.06 288.43
  A 0.93 0.92 81.4 0 0 427.54 287.77
  L 429.57 275.83
  A 0.59 0.58 -85.3 0 0 429.00 275.15
  Z"
/>
<circle fill="#800020" cx="696.33" cy="222.27" r="3.99"/>
<circle fill="#800020" cx="758.46" cy="222.27" r="3.98"/>
<path fill="#FFFFFF" d="
  M 165.46 307.45
  A 0.42 0.42 0.0 0 1 165.05 306.96
  L 179.86 219.82
  A 0.50 0.49 4.8 0 1 180.35 219.41
  Q 208.73 219.36 220.25 219.45
  C 232.42 219.53 242.69 223.55 245.56 236.42
  C 249.58 254.43 239.76 267.61 221.68 269.99
  A 0.28 0.28 0.0 0 0 221.52 270.46
  Q 226.20 275.35 229.37 281.14
  Q 235.71 292.71 241.55 306.74
  A 0.52 0.52 0.0 0 1 241.07 307.45
  L 223.38 307.45
  A 0.94 0.93 -10.5 0 1 222.51 306.86
  Q 217.74 294.36 211.73 281.80
  C 209.76 277.68 206.45 272.52 201.78 271.68
  Q 196.65 270.76 189.42 271.13
  A 0.61 0.60 -86.5 0 0 188.85 271.64
  L 182.83 307.06
  A 0.47 0.47 0.0 0 1 182.37 307.45
  L 165.46 307.45
  Z
  M 195.13 234.92
  L 191.30 257.41
  A 0.32 0.32 0.0 0 0 191.60 257.78
  Q 204.04 258.22 214.98 257.03
  C 222.97 256.17 230.23 249.20 228.27 240.92
  C 227.02 235.60 222.50 234.54 217.75 234.46
  Q 208.86 234.31 195.74 234.39
  A 0.64 0.63 -85.6 0 0 195.13 234.92
  Z"
/>
<path fill="#FFFFFF" d="
  M 266.31 219.40
  L 329.13 219.40
  A 0.40 0.40 0.0 0 1 329.52 219.87
  L 327.11 234.05
  A 0.40 0.40 0.0 0 1 326.71 234.38
  L 281.50 234.38
  A 0.40 0.40 0.0 0 0 281.10 234.71
  L 277.89 253.60
  A 0.40 0.40 0.0 0 0 278.28 254.07
  L 321.69 254.07
  A 0.40 0.40 0.0 0 1 322.08 254.54
  L 319.70 268.55
  A 0.40 0.40 0.0 0 1 319.30 268.88
  L 275.33 268.88
  A 0.40 0.40 0.0 0 0 274.93 269.21
  L 271.06 292.00
  A 0.40 0.40 0.0 0 0 271.45 292.47
  L 320.17 292.47
  A 0.40 0.40 0.0 0 1 320.56 292.94
  L 318.15 307.12
  A 0.40 0.40 0.0 0 1 317.75 307.45
  L 251.48 307.45
  A 0.40 0.40 0.0 0 1 251.09 306.98
  L 265.91 219.73
  A 0.40 0.40 0.0 0 1 266.31 219.40
  Z"
/>
<path fill="#FFFFFF" d="
  M 347.50 307.45
  L 330.64 307.45
  A 0.46 0.46 0.0 0 1 330.19 306.91
  L 345.00 219.79
  A 0.46 0.46 0.0 0 1 345.46 219.41
  L 362.32 219.41
  A 0.46 0.46 0.0 0 1 362.77 219.95
  L 347.96 307.07
  A 0.46 0.46 0.0 0 1 347.50 307.45
  Z"
/>
<path fill="#FFFFFF" d="
  M 481.71 268.49
  L 475.15 307.11
  A 0.40 0.40 0.0 0 1 474.75 307.44
  L 457.78 307.44
  A 0.40 0.40 0.0 0 1 457.39 306.97
  L 472.21 219.73
  A 0.40 0.40 0.0 0 1 472.61 219.40
  L 489.58 219.40
  A 0.40 0.40 0.0 0 1 489.97 219.87
  L 484.37 252.79
  A 0.40 0.40 0.0 0 0 484.76 253.26
  L 517.02 253.26
  A 0.40 0.40 0.0 0 0 517.42 252.93
  L 523.06 219.73
  A 0.40 0.40 0.0 0 1 523.46 219.40
  L 540.45 219.40
  A 0.40 0.40 0.0 0 1 540.84 219.87
  L 526.01 307.11
  A 0.40 0.40 0.0 0 1 525.61 307.44
  L 508.63 307.44
  A 0.40 0.40 0.0 0 1 508.24 306.97
  L 514.76 268.63
  A 0.40 0.40 0.0 0 0 514.37 268.16
  L 482.11 268.16
  A 0.40 0.40 0.0 0 0 481.71 268.49
  Z"
/>
<path fill="#FFFFFF" d="
  M 156.62 269.95
  L 115.76 269.95
  A 0.39 0.39 0.0 0 0 115.37 270.27
  L 109.11 307.13
  A 0.39 0.39 0.0 0 1 108.72 307.45
  L 91.72 307.45
  A 0.39 0.39 0.0 0 1 91.34 306.99
  L 106.16 219.72
  A 0.39 0.39 0.0 0 1 106.55 219.40
  L 165.91 219.40
  A 0.39 0.39 0.0 0 1 166.29 219.86
  L 163.89 234.06
  A 0.39 0.39 0.0 0 1 163.50 234.38
  L 121.79 234.38
  A 0.39 0.39 0.0 0 0 121.40 234.70
  L 118.01 254.68
  A 0.39 0.39 0.0 0 0 118.39 255.14
  L 159.00 255.14
  A 0.39 0.39 0.0 0 1 159.38 255.60
  L 157.01 269.63
  A 0.39 0.39 0.0 0 1 156.62 269.95
  Z"
/>
<path fill="#FFFFFF" d="
  M 617.84 234.37
  L 593.79 234.37
  A 0.35 0.35 0.0 0 0 593.44 234.66
  L 581.11 307.15
  A 0.35 0.35 0.0 0 1 580.76 307.44
  L 563.62 307.44
  A 0.35 0.35 0.0 0 1 563.28 307.03
  L 575.57 234.78
  A 0.35 0.35 0.0 0 0 575.23 234.37
  L 550.86 234.37
  A 0.35 0.35 0.0 0 1 550.52 233.96
  L 552.94 219.69
  A 0.35 0.35 0.0 0 1 553.29 219.40
  L 620.28 219.40
  A 0.35 0.35 0.0 0 1 620.62 219.81
  L 618.19 234.08
  A 0.35 0.35 0.0 0 1 617.84 234.37
  Z"
/>
<path fill="#FFFFFF" d="
  M 195.74 234.39
  Q 208.86 234.31 217.75 234.46
  C 222.50 234.54 227.02 235.60 228.27 240.92
  C 230.23 249.20 222.97 256.17 214.98 257.03
  Q 204.04 258.22 191.60 257.78
  A 0.32 0.32 0.0 0 1 191.30 257.41
  L 195.13 234.92
  A 0.64 0.63 -85.6 0 1 195.74 234.39
  Z"
/>
<path fill="#800020" d="
  M 595.74 342.51
  A 0.29 0.28 10.0 0 1 595.47 342.13
  L 626.55 254.18
  A 0.55 0.55 0.0 0 1 627.07 253.81
  L 798.27 253.81
  A 0.28 0.28 0.0 0 1 798.54 254.17
  Q 782.61 304.69 780.11 312.12
  C 775.54 325.73 764.97 338.04 750.79 341.56
  Q 746.92 342.52 738.66 342.52
  Q 648.63 342.51 595.74 342.51
  Z
  M 662.85 297.48
  L 662.85 278.72
  A 0.65 0.64 0.0 0 0 662.20 278.08
  L 648.94 278.08
  A 0.87 0.86 -78.9 0 0 648.14 278.62
  Q 642.39 293.00 641.92 294.37
  Q 641.49 295.64 641.69 297.32
  A 0.66 0.65 86.5 0 0 642.34 297.90
  L 662.43 297.90
  A 0.42 0.42 0.0 0 0 662.85 297.48
  Z
  M 684.61 291.22
  A 0.50 0.50 0.0 0 0 684.11 290.72
  L 669.15 290.72
  A 0.50 0.50 0.0 0 0 668.65 291.22
  L 668.65 296.78
  A 0.50 0.50 0.0 0 0 669.15 297.28
  L 684.11 297.28
  A 0.50 0.50 0.0 0 0 684.61 296.78
  L 684.61 291.22
  Z
  M 703.31 291.25
  A 0.53 0.53 0.0 0 0 702.78 290.72
  L 687.88 290.72
  A 0.53 0.53 0.0 0 0 687.35 291.25
  L 687.35 296.75
  A 0.53 0.53 0.0 0 0 687.88 297.28
  L 702.78 297.28
  A 0.53 0.53 0.0 0 0 703.31 296.75
  L 703.31 291.25
  Z
  M 721.94 291.16
  A 0.44 0.44 0.0 0 0 721.50 290.72
  L 706.56 290.72
  A 0.44 0.44 0.0 0 0 706.12 291.16
  L 706.12 296.84
  A 0.44 0.44 0.0 0 0 706.56 297.28
  L 721.50 297.28
  A 0.44 0.44 0.0 0 0 721.94 296.84
  L 721.94 291.16
  Z
  M 739.99 291.18
  A 0.45 0.45 0.0 0 0 739.54 290.73
  L 724.62 290.73
  A 0.45 0.45 0.0 0 0 724.17 291.18
  L 724.17 296.84
  A 0.45 0.45 0.0 0 0 724.62 297.29
  L 739.54 297.29
  A 0.45 0.45 0.0 0 0 739.99 296.84
  L 739.99 291.18
  Z
  M 672.11 305.15
  A 0.49 0.49 0.0 0 0 672.43 305.26
  L 690.21 305.26
  A 0.49 0.49 0.0 0 0 690.70 304.77
  L 690.70 299.20
  A 0.49 0.49 0.0 0 0 690.21 298.71
  L 669.15 298.71
  A 0.49 0.49 0.0 0 0 668.66 299.20
  L 668.66 302.02
  A 0.49 0.49 0.0 0 0 668.84 302.40
  L 672.11 305.15
  Z
  M 708.9149 299.0762
  A 0.38 0.38 0.0 0 0 708.5343 298.6969
  L 693.4943 298.7231
  A 0.38 0.38 0.0 0 0 693.1150 299.1038
  L 693.1251 304.9038
  A 0.38 0.38 0.0 0 0 693.5057 305.2831
  L 708.5457 305.2569
  A 0.38 0.38 0.0 0 0 708.9250 304.8762
  L 708.9149 299.0762
  Z
  M 712.00 305.25
  Q 718.78 305.33 723.74 305.19
  Q 726.52 305.11 729.24 303.95
  A 0.78 0.78 0.0 0 0 729.72 303.23
  L 729.72 299.11
  A 0.40 0.40 0.0 0 0 729.32 298.71
  L 712.02 298.71
  A 0.50 0.50 0.0 0 0 711.52 299.21
  L 711.52 304.77
  A 0.48 0.48 0.0 0 0 712.00 305.25
  Z
  M 761.19 298.70
  L 742.99 298.70
  A 2.16 2.13 26.2 0 0 741.70 299.13
  C 737.34 302.48 731.63 305.88 726.02 307.33
  Q 723.47 307.99 718.70 307.89
  Q 715.46 307.83 672.07 307.66
  A 1.88 1.86 64.5 0 1 670.88 307.23
  L 663.44 301.00
  A 1.52 1.49 64.5 0 0 662.48 300.65
  L 636.37 300.65
  A 0.57 0.57 0.0 0 0 635.80 301.22
  C 635.75 306.24 635.87 313.67 638.99 317.23
  Q 640.57 319.04 644.24 319.04
  Q 699.15 319.03 750.12 319.04
  A 0.59 0.58 84.3 0 0 750.69 318.34
  C 749.72 313.67 751.89 311.88 755.32 308.48
  Q 757.66 306.15 761.49 302.93
  A 1.03 1.00 70.7 0 0 761.85 302.15
  L 761.85 299.36
  A 0.66 0.66 0.0 0 0 761.19 298.70
  Z"
/>
<path fill="#FFFFFF" d="
  M 662.85 297.48
  A 0.42 0.42 0.0 0 1 662.43 297.90
  L 642.34 297.90
  A 0.66 0.65 86.5 0 1 641.69 297.32
  Q 641.49 295.64 641.92 294.37
  Q 642.39 293.00 648.14 278.62
  A 0.87 0.86 -78.9 0 1 648.94 278.08
  L 662.20 278.08
  A 0.65 0.64 -0.0 0 1 662.85 278.72
  L 662.85 297.48
  Z
  M 662.0425 283.9788
  A 0.72 0.72 0.0 0 0 661.3351 283.2463
  L 658.3356 283.1940
  A 0.72 0.72 0.0 0 0 657.6031 283.9013
  L 657.5975 284.2212
  A 0.72 0.72 0.0 0 0 658.3049 284.9537
  L 661.3044 285.0060
  A 0.72 0.72 0.0 0 0 662.0369 284.2987
  L 662.0425 283.9788
  Z
  M 662.0411 286.9150
  A 0.62 0.62 0.0 0 0 661.4244 286.2918
  L 656.9244 286.2682
  A 0.62 0.62 0.0 0 0 656.3012 286.8850
  L 656.2989 287.3250
  A 0.62 0.62 0.0 0 0 656.9156 287.9482
  L 661.4156 287.9718
  A 0.62 0.62 0.0 0 0 662.0388 287.3550
  L 662.0411 286.9150
  Z"
/>
<rect fill="#800020" x="-2.22" y="-0.88" transform="translate(659.82,284.10) rotate(1.0)" width="4.44" height="1.76" rx="0.72"/>
<rect fill="#800020" x="-2.87" y="-0.84" transform="translate(659.17,287.12) rotate(0.3)" width="5.74" height="1.68" rx="0.62"/>
<rect fill="#FFFFFF" x="668.65" y="290.72" width="15.96" height="6.56" rx="0.50"/>
<rect fill="#FFFFFF" x="687.35" y="290.72" width="15.96" height="6.56" rx="0.53"/>
<rect fill="#FFFFFF" x="706.12" y="290.72" width="15.82" height="6.56" rx="0.44"/>
<rect fill="#FFFFFF" x="724.17" y="290.73" width="15.82" height="6.56" rx="0.45"/>
<path fill="#FFFFFF" d="
  M 672.11 305.15
  L 668.84 302.40
  A 0.49 0.49 0.0 0 1 668.66 302.02
  L 668.66 299.20
  A 0.49 0.49 0.0 0 1 669.15 298.71
  L 690.21 298.71
  A 0.49 0.49 0.0 0 1 690.70 299.20
  L 690.70 304.77
  A 0.49 0.49 0.0 0 1 690.21 305.26
  L 672.43 305.26
  A 0.49 0.49 0.0 0 1 672.11 305.15
  Z"
/>
<rect fill="#FFFFFF" x="-7.90" y="-3.28" transform="translate(701.02,301.99) rotate(-0.1)" width="15.80" height="6.56" rx="0.38"/>
<path fill="#FFFFFF" d="
  M 712.00 305.25
  A 0.48 0.48 0.0 0 1 711.52 304.77
  L 711.52 299.21
  A 0.50 0.50 0.0 0 1 712.02 298.71
  L 729.32 298.71
  A 0.40 0.40 0.0 0 1 729.72 299.11
  L 729.72 303.23
  A 0.78 0.78 0.0 0 1 729.24 303.95
  Q 726.52 305.11 723.74 305.19
  Q 718.78 305.33 712.00 305.25
  Z"
/>
<path fill="#FFFFFF" d="
  M 761.85 299.36
  L 761.85 302.15
  A 1.03 1.00 70.7 0 1 761.49 302.93
  Q 757.66 306.15 755.32 308.48
  C 751.89 311.88 749.72 313.67 750.69 318.34
  A 0.59 0.58 84.3 0 1 750.12 319.04
  Q 699.15 319.03 644.24 319.04
  Q 640.57 319.04 638.99 317.23
  C 635.87 313.67 635.75 306.24 635.80 301.22
  A 0.57 0.57 0.0 0 1 636.37 300.65
  L 662.48 300.65
  A 1.52 1.49 64.5 0 1 663.44 301.00
  L 670.88 307.23
  A 1.88 1.86 64.5 0 0 672.07 307.66
  Q 715.46 307.83 718.70 307.89
  Q 723.47 307.99 726.02 307.33
  C 731.63 305.88 737.34 302.48 741.70 299.13
  A 2.16 2.13 26.2 0 1 742.99 298.70
  L 761.19 298.70
  A 0.66 0.66 0.0 0 1 761.85 299.36
  Z
  M 756.9393 301.3961
  A 0.42 0.42 0.0 0 0 756.5237 300.9717
  L 752.3839 300.9284
  A 0.42 0.42 0.0 0 0 751.9596 301.3440
  L 751.9407 303.1439
  A 0.42 0.42 0.0 0 0 752.3563 303.5683
  L 756.4961 303.6116
  A 0.42 0.42 0.0 0 0 756.9204 303.1960
  L 756.9393 301.3961
  Z"
/>
<rect fill="#800020" x="-2.49" y="-1.32" transform="translate(754.44,302.27) rotate(0.6)" width="4.98" height="2.64" rx="0.42"/>
</svg>